<svg xmlns="http://www.w3.org/2000/svg" xmlns:xlink="http://www.w3.org/1999/xlink" width="375" zoomAndPan="magnify" viewBox="0 0 375 374.999991" height="374.999991" preserveAspectRatio="xMidYMid meet" version="1.0"><defs><clipPath id="id1"><path d="M 11.722656 11.722656 L 259 11.722656 L 259 259 L 11.722656 259 Z M 11.722656 11.722656 " clip-rule="nonzero"/></clipPath><clipPath id="id2"><path d="M 232 236 L 361 236 L 361 363.472656 L 232 363.472656 Z M 232 236 " clip-rule="nonzero"/></clipPath></defs><g clip-path="url(#id1)"><path fill="rgb(29.019165%, 65.489197%, 70.588684%)" d="M 134.925781 52.214844 C 180.582031 52.214844 217.589844 89.21875 217.589844 134.851562 C 217.589844 180.523438 180.582031 217.554688 134.925781 217.554688 C 89.269531 217.554688 52.265625 180.53125 52.265625 134.851562 C 52.265625 89.21875 89.269531 52.214844 134.925781 52.214844 M 134.925781 11.722656 C 67.027344 11.722656 11.773438 66.976562 11.773438 134.855469 C 11.773438 202.78125 67.027344 258.003906 134.925781 258.003906 C 202.832031 258.003906 258.0625 202.773438 258.0625 134.855469 C 258.0625 66.976562 202.832031 11.722656 134.925781 11.722656 Z M 134.925781 11.722656 " fill-opacity="1" fill-rule="nonzero"/></g><g clip-path="url(#id2)"><path fill="rgb(29.019165%, 65.489197%, 70.588684%)" d="M 326.386719 363.441406 C 317.738281 363.441406 309.132812 360.15625 302.539062 353.558594 L 242.648438 293.65625 C 229.460938 280.492188 229.460938 259.164062 242.648438 245.945312 C 255.835938 232.773438 277.171875 232.773438 290.359375 245.945312 L 350.246094 305.855469 C 363.433594 319.035156 363.433594 340.378906 350.246094 353.558594 C 343.65625 360.15625 335.046875 363.441406 326.386719 363.441406 Z M 326.386719 363.441406 " fill-opacity="1" fill-rule="nonzero"/></g><path fill="rgb(29.019165%, 65.489197%, 70.588684%)" d="M 230.1875 204.902344 L 263.09375 237.789062 L 234.46875 266.433594 L 201.5625 233.546875 Z M 230.1875 204.902344 " fill-opacity="1" fill-rule="nonzero"/></svg>